<?xml version="1.0" encoding="UTF-8" standalone="no"?>
<!-- Created with Inkscape (http://www.inkscape.org/) -->

<svg
   width="11.567mm"
   height="11.567mm"
   viewBox="0 0 11.566999 11.566999"
   version="1.1"
   id="svg5"
   inkscape:version="1.3.1 (91b66b0783, 2023-11-16)"
   sodipodi:docname="favicon.svg"
   inkscape:export-filename="favicon\64.png"
   inkscape:export-xdpi="140.53773"
   inkscape:export-ydpi="140.53773"
   xmlns:inkscape="http://www.inkscape.org/namespaces/inkscape"
   xmlns:sodipodi="http://sodipodi.sourceforge.net/DTD/sodipodi-0.dtd"
   xmlns="http://www.w3.org/2000/svg"
   xmlns:svg="http://www.w3.org/2000/svg">
  <sodipodi:namedview
     id="namedview7"
     pagecolor="#ffffff"
     bordercolor="#666666"
     borderopacity="1.0"
     inkscape:showpageshadow="2"
     inkscape:pageopacity="0.0"
     inkscape:pagecheckerboard="0"
     inkscape:deskcolor="#d1d1d1"
     inkscape:document-units="mm"
     showgrid="false"
     inkscape:zoom="4.2179991"
     inkscape:cx="35.798964"
     inkscape:cy="-8.1792336"
     inkscape:window-width="1920"
     inkscape:window-height="1137"
     inkscape:window-x="1912"
     inkscape:window-y="-8"
     inkscape:window-maximized="1"
     inkscape:current-layer="layer2" />
  <defs
     id="defs2" />
  <g
     inkscape:label="Layer 1"
     inkscape:groupmode="layer"
     id="layer1"
     transform="translate(-28.024974,-6.0278776)" />
  <g
     inkscape:groupmode="layer"
     id="layer2"
     inkscape:label="Layer 2"
     transform="translate(-28.024974,-6.0278776)">
    <path
       style="fill:none;stroke:#00db6c;stroke-width:0.525;stroke-linecap:butt;stroke-linejoin:miter;stroke-dasharray:none;stroke-opacity:1"
       d="m 31.152756,9.8161907 -2.413234,3.3703883 1.927172,-0.719702 1.542079,1.380464 z"
       id="path617"
       sodipodi:nodetypes="ccccc" />
    <g
       id="g2007"
       transform="matrix(0.41768611,0.00644957,-0.00644957,0.41768611,8.10679,4.6534117)"
       style="stroke:#00db6c;stroke-width:1.19214;stroke-dasharray:none;stroke-opacity:1">
      <g
         id="g2024"
         style="stroke:#00db6c;stroke-width:1.19214;stroke-dasharray:none;stroke-opacity:1">
        <path
           id="path715"
           style="fill:none;stroke:#00db6c;stroke-width:1.67091;stroke-linecap:round;stroke-dasharray:none;stroke-opacity:1"
           d="m 69.089555,10.70074 c 0,-1.55172 1.257918,-2.8096379 2.809638,-2.8096379 1.55172,0 2.809638,1.2579179 2.809638,2.8096379"
           sodipodi:nodetypes="csc" />
        <path
           style="fill:none;stroke:#00db6c;stroke-width:1.67091;stroke-linecap:round;stroke-linejoin:miter;stroke-dasharray:none;stroke-opacity:1"
           d="m 69.143485,10.150129 c 0,0 -0.02369,-0.0018 -0.05393,0.550611 -0.03897,0.711936 0.130962,1.382372 0.925076,3.1159 l 1.978774,4.113938 1.757438,-4.113938 c 0.767889,-1.79753 0.985444,-2.533891 0.957988,-3.1159 -0.02736,-0.580042 -0.05944,-0.577637 -0.05944,-0.577637"
           id="path1272"
           sodipodi:nodetypes="csscssc" />
        <circle
           style="fill:#00db6c;fill-opacity:1;stroke:#00db6c;stroke-width:0.473984;stroke-linecap:round;stroke-linejoin:miter;stroke-dasharray:none;stroke-opacity:1"
           id="path2019"
           cx="71.899193"
           cy="10.936752"
           r="0.65139246" />
      </g>
    </g>
  </g>
  <g
     inkscape:groupmode="layer"
     id="layer3"
     inkscape:label="Layer 3"
     transform="translate(-28.024974,-6.0278776)">
    <path
       style="fill:none;fill-opacity:1;stroke:#00db6c;stroke-width:0.665;stroke-linecap:butt;stroke-linejoin:round;stroke-dasharray:1.33, 0.665;stroke-dashoffset:0;stroke-opacity:1"
       d="m 31.638819,9.1385198 c 0,0 0.757678,-1.4985381 1.154974,-1.8152245 0.828235,-0.6601882 1.126113,-0.2321738 1.357598,1.0160166 0.231485,1.2481905 0.201447,2.1326361 0.198577,3.6736161 -0.0029,1.54098 0.02523,2.756903 0.250381,3.848224 0.22515,1.091319 1.031212,0.882003 1.543269,0.562312 0.586011,-0.365863 1.688297,-2.800236 1.688297,-2.800236"
       id="path1"
       sodipodi:nodetypes="cszzzac" />
  </g>
</svg>
